<mxfile host="app.diagrams.net" modified="2022-11-07T14:07:59.138Z" agent="5.0 (Macintosh; Intel Mac OS X 10_15_7) AppleWebKit/537.36 (KHTML, like Gecko) Chrome/106.0.0.0 Safari/537.36" etag="DLQhtSf2kN51LKs5OLxj" version="20.5.3" type="github">
  <diagram id="C5RBs43oDa-KdzZeNtuy" name="Page-1">
    <mxGraphModel dx="864" dy="569" grid="1" gridSize="10" guides="1" tooltips="1" connect="1" arrows="1" fold="1" page="1" pageScale="1" pageWidth="827" pageHeight="1169" background="#F1FAEE" math="0" shadow="0">
      <root>
        <mxCell id="WIyWlLk6GJQsqaUBKTNV-0" />
        <mxCell id="WIyWlLk6GJQsqaUBKTNV-1" parent="WIyWlLk6GJQsqaUBKTNV-0" />
        <mxCell id="JU9-01hU8vWWiG5gxR3A-5" style="edgeStyle=orthogonalEdgeStyle;rounded=1;orthogonalLoop=1;jettySize=auto;html=1;exitX=0.5;exitY=1;exitDx=0;exitDy=0;strokeColor=#457B9D;labelBackgroundColor=#F1FAEE;fontColor=#1D3557;curved=1;sketch=1;" edge="1" parent="WIyWlLk6GJQsqaUBKTNV-1" source="WIyWlLk6GJQsqaUBKTNV-3" target="JU9-01hU8vWWiG5gxR3A-0">
          <mxGeometry relative="1" as="geometry" />
        </mxCell>
        <mxCell id="WIyWlLk6GJQsqaUBKTNV-3" value="使用 Vite 创建 Vue+TS项目" style="rounded=1;whiteSpace=wrap;html=1;fontSize=14;glass=0;strokeWidth=1;shadow=0;fillColor=#A8DADC;strokeColor=#457B9D;fontColor=#1D3557;fontStyle=1;sketch=1;" parent="WIyWlLk6GJQsqaUBKTNV-1" vertex="1">
          <mxGeometry x="140" y="20" width="160" height="60" as="geometry" />
        </mxCell>
        <mxCell id="JU9-01hU8vWWiG5gxR3A-4" style="edgeStyle=orthogonalEdgeStyle;rounded=1;orthogonalLoop=1;jettySize=auto;html=1;exitX=0.5;exitY=1;exitDx=0;exitDy=0;entryX=0.5;entryY=0;entryDx=0;entryDy=0;strokeColor=#457B9D;labelBackgroundColor=#F1FAEE;fontColor=#1D3557;curved=1;sketch=1;" edge="1" parent="WIyWlLk6GJQsqaUBKTNV-1" source="JU9-01hU8vWWiG5gxR3A-0" target="JU9-01hU8vWWiG5gxR3A-1">
          <mxGeometry relative="1" as="geometry" />
        </mxCell>
        <mxCell id="JU9-01hU8vWWiG5gxR3A-0" value="安装 Electron 模块" style="rounded=1;whiteSpace=wrap;html=1;fontSize=14;glass=0;strokeWidth=1;shadow=0;fillColor=#A8DADC;strokeColor=#457B9D;fontColor=#1D3557;fontStyle=1;sketch=1;" vertex="1" parent="WIyWlLk6GJQsqaUBKTNV-1">
          <mxGeometry x="140" y="130" width="160" height="60" as="geometry" />
        </mxCell>
        <mxCell id="JU9-01hU8vWWiG5gxR3A-10" style="edgeStyle=orthogonalEdgeStyle;rounded=1;orthogonalLoop=1;jettySize=auto;html=1;exitX=0.5;exitY=1;exitDx=0;exitDy=0;entryX=0.5;entryY=0;entryDx=0;entryDy=0;strokeColor=#457B9D;labelBackgroundColor=#F1FAEE;fontColor=#1D3557;curved=1;sketch=1;" edge="1" parent="WIyWlLk6GJQsqaUBKTNV-1" source="JU9-01hU8vWWiG5gxR3A-1" target="JU9-01hU8vWWiG5gxR3A-6">
          <mxGeometry relative="1" as="geometry" />
        </mxCell>
        <mxCell id="JU9-01hU8vWWiG5gxR3A-1" value="配置主进程代码" style="rounded=1;whiteSpace=wrap;html=1;fontSize=14;glass=0;strokeWidth=1;shadow=0;fillColor=#A8DADC;strokeColor=#457B9D;fontColor=#1D3557;fontStyle=1;sketch=1;" vertex="1" parent="WIyWlLk6GJQsqaUBKTNV-1">
          <mxGeometry x="140" y="240" width="160" height="60" as="geometry" />
        </mxCell>
        <mxCell id="JU9-01hU8vWWiG5gxR3A-11" style="edgeStyle=orthogonalEdgeStyle;rounded=1;orthogonalLoop=1;jettySize=auto;html=1;entryX=0;entryY=0.5;entryDx=0;entryDy=0;strokeColor=#457B9D;labelBackgroundColor=#F1FAEE;fontColor=#1D3557;curved=1;sketch=1;" edge="1" parent="WIyWlLk6GJQsqaUBKTNV-1" source="JU9-01hU8vWWiG5gxR3A-6" target="JU9-01hU8vWWiG5gxR3A-7">
          <mxGeometry relative="1" as="geometry">
            <Array as="points">
              <mxPoint x="330" y="370" />
              <mxPoint x="330" y="270" />
            </Array>
          </mxGeometry>
        </mxCell>
        <mxCell id="JU9-01hU8vWWiG5gxR3A-12" style="edgeStyle=orthogonalEdgeStyle;rounded=1;orthogonalLoop=1;jettySize=auto;html=1;entryX=0;entryY=0.5;entryDx=0;entryDy=0;strokeColor=#457B9D;labelBackgroundColor=#F1FAEE;fontColor=#1D3557;curved=1;sketch=1;" edge="1" parent="WIyWlLk6GJQsqaUBKTNV-1" source="JU9-01hU8vWWiG5gxR3A-6" target="JU9-01hU8vWWiG5gxR3A-9">
          <mxGeometry relative="1" as="geometry" />
        </mxCell>
        <mxCell id="JU9-01hU8vWWiG5gxR3A-13" style="edgeStyle=orthogonalEdgeStyle;rounded=1;orthogonalLoop=1;jettySize=auto;html=1;entryX=0;entryY=0.5;entryDx=0;entryDy=0;strokeColor=#457B9D;labelBackgroundColor=#F1FAEE;fontColor=#1D3557;curved=1;sketch=1;" edge="1" parent="WIyWlLk6GJQsqaUBKTNV-1" source="JU9-01hU8vWWiG5gxR3A-6" target="JU9-01hU8vWWiG5gxR3A-8">
          <mxGeometry relative="1" as="geometry" />
        </mxCell>
        <mxCell id="JU9-01hU8vWWiG5gxR3A-6" value="为渲染进程集成 Node" style="rounded=1;whiteSpace=wrap;html=1;fontSize=14;glass=0;strokeWidth=1;shadow=0;fillColor=#A8DADC;strokeColor=#457B9D;fontColor=#1D3557;fontStyle=1;sketch=1;" vertex="1" parent="WIyWlLk6GJQsqaUBKTNV-1">
          <mxGeometry x="140" y="340" width="160" height="60" as="geometry" />
        </mxCell>
        <mxCell id="JU9-01hU8vWWiG5gxR3A-7" value="修改主进程配置" style="rounded=1;whiteSpace=wrap;html=1;fontSize=14;glass=0;strokeWidth=1;shadow=0;fillColor=#A8DADC;strokeColor=#457B9D;fontColor=#1D3557;labelBackgroundColor=none;labelBorderColor=none;fontStyle=1;sketch=1;" vertex="1" parent="WIyWlLk6GJQsqaUBKTNV-1">
          <mxGeometry x="360" y="240" width="160" height="60" as="geometry" />
        </mxCell>
        <mxCell id="JU9-01hU8vWWiG5gxR3A-8" value="设置模块别名与解析钩子" style="rounded=1;whiteSpace=wrap;html=1;fontSize=14;glass=0;strokeWidth=1;shadow=0;fillColor=#A8DADC;strokeColor=#457B9D;fontColor=#1D3557;fontStyle=1;sketch=1;" vertex="1" parent="WIyWlLk6GJQsqaUBKTNV-1">
          <mxGeometry x="360" y="340" width="160" height="60" as="geometry" />
        </mxCell>
        <mxCell id="JU9-01hU8vWWiG5gxR3A-9" value="封装内置模块处理器" style="rounded=1;whiteSpace=wrap;html=1;fontSize=14;glass=0;strokeWidth=1;shadow=0;fillColor=#A8DADC;strokeColor=#457B9D;fontColor=#1D3557;fontStyle=1;sketch=1;" vertex="1" parent="WIyWlLk6GJQsqaUBKTNV-1">
          <mxGeometry x="360" y="440" width="160" height="60" as="geometry" />
        </mxCell>
      </root>
    </mxGraphModel>
  </diagram>
</mxfile>
